<mxfile host="app.diagrams.net" agent="Mozilla/5.0 (Macintosh; Intel Mac OS X 10_15_7) AppleWebKit/537.36 (KHTML, like Gecko) Chrome/134.0.0.0 Safari/537.36" version="26.1.1">
  <diagram name="Page-1" id="gdT6PotA4WGH__lioKhu">
    <mxGraphModel dx="1706" dy="1089" grid="1" gridSize="10" guides="1" tooltips="1" connect="1" arrows="1" fold="1" page="1" pageScale="1" pageWidth="1169" pageHeight="827" math="0" shadow="0">
      <root>
        <mxCell id="0" />
        <mxCell id="1" parent="0" />
        <mxCell id="Gngz97oQ8ZHujTCnx3hb-76" value="r1: 0" style="edgeStyle=orthogonalEdgeStyle;shape=connector;rounded=0;orthogonalLoop=1;jettySize=auto;html=1;exitX=0.5;exitY=1;exitDx=0;exitDy=0;strokeColor=default;strokeWidth=2;align=center;verticalAlign=middle;fontFamily=Helvetica;fontSize=14;fontColor=default;labelBackgroundColor=default;endArrow=classic;" edge="1" parent="1" source="Gngz97oQ8ZHujTCnx3hb-1" target="Gngz97oQ8ZHujTCnx3hb-58">
          <mxGeometry relative="1" as="geometry" />
        </mxCell>
        <mxCell id="Gngz97oQ8ZHujTCnx3hb-77" value="r1: 1" style="edgeStyle=orthogonalEdgeStyle;shape=connector;rounded=0;orthogonalLoop=1;jettySize=auto;html=1;exitX=1;exitY=0.5;exitDx=0;exitDy=0;strokeColor=default;strokeWidth=2;align=center;verticalAlign=middle;fontFamily=Helvetica;fontSize=14;fontColor=default;labelBackgroundColor=default;endArrow=classic;" edge="1" parent="1" source="Gngz97oQ8ZHujTCnx3hb-1" target="Gngz97oQ8ZHujTCnx3hb-57">
          <mxGeometry relative="1" as="geometry" />
        </mxCell>
        <mxCell id="Gngz97oQ8ZHujTCnx3hb-1" value="&lt;font style=&quot;font-size: 15px;&quot;&gt;start&lt;/font&gt;" style="ellipse;whiteSpace=wrap;html=1;" vertex="1" parent="1">
          <mxGeometry x="209.99999999999997" y="63" width="80" height="80" as="geometry" />
        </mxCell>
        <mxCell id="Gngz97oQ8ZHujTCnx3hb-56" value="" style="endArrow=classic;html=1;rounded=0;strokeColor=default;strokeWidth=6;align=center;verticalAlign=middle;fontFamily=Helvetica;fontSize=14;fontColor=default;labelBackgroundColor=default;edgeStyle=orthogonalEdgeStyle;" edge="1" parent="1" target="Gngz97oQ8ZHujTCnx3hb-1">
          <mxGeometry width="50" height="50" relative="1" as="geometry">
            <mxPoint x="30" y="103" as="sourcePoint" />
            <mxPoint x="229.90999999999997" y="-27" as="targetPoint" />
            <Array as="points">
              <mxPoint x="140" y="103" />
              <mxPoint x="140" y="103" />
            </Array>
          </mxGeometry>
        </mxCell>
        <mxCell id="Gngz97oQ8ZHujTCnx3hb-83" value="r1: /&amp;nbsp;" style="edgeStyle=orthogonalEdgeStyle;shape=connector;rounded=0;orthogonalLoop=1;jettySize=auto;html=1;exitX=1;exitY=1;exitDx=0;exitDy=0;entryX=0;entryY=1;entryDx=0;entryDy=0;strokeColor=default;strokeWidth=2;align=center;verticalAlign=middle;fontFamily=Helvetica;fontSize=14;fontColor=default;labelBackgroundColor=default;endArrow=classic;" edge="1" parent="1" source="Gngz97oQ8ZHujTCnx3hb-57" target="Gngz97oQ8ZHujTCnx3hb-59">
          <mxGeometry relative="1" as="geometry" />
        </mxCell>
        <mxCell id="Gngz97oQ8ZHujTCnx3hb-57" value="&lt;font style=&quot;font-size: 15px;&quot;&gt;skip&lt;/font&gt;" style="ellipse;whiteSpace=wrap;html=1;" vertex="1" parent="1">
          <mxGeometry x="389.99999999999994" y="63" width="80" height="80" as="geometry" />
        </mxCell>
        <mxCell id="Gngz97oQ8ZHujTCnx3hb-79" value="r1: 1" style="edgeStyle=orthogonalEdgeStyle;shape=connector;rounded=0;orthogonalLoop=1;jettySize=auto;html=1;exitX=1;exitY=0;exitDx=0;exitDy=0;strokeColor=default;strokeWidth=2;align=center;verticalAlign=middle;fontFamily=Helvetica;fontSize=14;fontColor=default;labelBackgroundColor=default;endArrow=classic;" edge="1" parent="1" source="Gngz97oQ8ZHujTCnx3hb-58" target="Gngz97oQ8ZHujTCnx3hb-57">
          <mxGeometry relative="1" as="geometry" />
        </mxCell>
        <mxCell id="Gngz97oQ8ZHujTCnx3hb-58" value="&lt;font style=&quot;font-size: 15px;&quot;&gt;remove&lt;br&gt;Zeros&lt;/font&gt;" style="ellipse;whiteSpace=wrap;html=1;" vertex="1" parent="1">
          <mxGeometry x="180" y="200" width="80" height="80" as="geometry" />
        </mxCell>
        <mxCell id="Gngz97oQ8ZHujTCnx3hb-84" value="r1: =&amp;nbsp;" style="edgeStyle=orthogonalEdgeStyle;shape=connector;rounded=0;orthogonalLoop=1;jettySize=auto;html=1;exitX=1;exitY=1;exitDx=0;exitDy=0;entryX=0;entryY=1;entryDx=0;entryDy=0;strokeColor=default;strokeWidth=2;align=center;verticalAlign=middle;fontFamily=Helvetica;fontSize=14;fontColor=default;labelBackgroundColor=default;endArrow=classic;" edge="1" parent="1" source="Gngz97oQ8ZHujTCnx3hb-59" target="Gngz97oQ8ZHujTCnx3hb-60">
          <mxGeometry relative="1" as="geometry">
            <mxPoint as="offset" />
          </mxGeometry>
        </mxCell>
        <mxCell id="Gngz97oQ8ZHujTCnx3hb-59" value="&lt;font style=&quot;font-size: 15px;&quot;&gt;copy&lt;/font&gt;" style="ellipse;whiteSpace=wrap;html=1;" vertex="1" parent="1">
          <mxGeometry x="610" y="63" width="80" height="80" as="geometry" />
        </mxCell>
        <mxCell id="Gngz97oQ8ZHujTCnx3hb-86" value="r1: /&amp;nbsp;" style="edgeStyle=orthogonalEdgeStyle;shape=connector;rounded=0;orthogonalLoop=1;jettySize=auto;html=1;exitX=0.5;exitY=1;exitDx=0;exitDy=0;strokeColor=default;strokeWidth=2;align=center;verticalAlign=middle;fontFamily=Helvetica;fontSize=14;fontColor=default;labelBackgroundColor=default;endArrow=classic;" edge="1" parent="1" source="Gngz97oQ8ZHujTCnx3hb-60" target="Gngz97oQ8ZHujTCnx3hb-61">
          <mxGeometry relative="1" as="geometry" />
        </mxCell>
        <mxCell id="Gngz97oQ8ZHujTCnx3hb-60" value="&lt;font style=&quot;font-size: 15px;&quot;&gt;prepare&lt;br&gt;Compute&lt;/font&gt;" style="ellipse;whiteSpace=wrap;html=1;" vertex="1" parent="1">
          <mxGeometry x="820" y="40" width="80" height="80" as="geometry" />
        </mxCell>
        <mxCell id="Gngz97oQ8ZHujTCnx3hb-88" value="r1: 0&lt;br&gt;r2: 1" style="edgeStyle=orthogonalEdgeStyle;shape=connector;rounded=0;orthogonalLoop=1;jettySize=auto;html=1;exitX=0;exitY=0.5;exitDx=0;exitDy=0;strokeColor=default;strokeWidth=2;align=center;verticalAlign=middle;fontFamily=Helvetica;fontSize=14;fontColor=default;labelBackgroundColor=default;endArrow=classic;entryX=1;entryY=1;entryDx=0;entryDy=0;" edge="1" parent="1" source="Gngz97oQ8ZHujTCnx3hb-61" target="Gngz97oQ8ZHujTCnx3hb-63">
          <mxGeometry relative="1" as="geometry" />
        </mxCell>
        <mxCell id="Gngz97oQ8ZHujTCnx3hb-90" value="r1: _&amp;nbsp;&lt;br&gt;r2: 1&amp;nbsp;" style="edgeStyle=orthogonalEdgeStyle;shape=connector;rounded=0;orthogonalLoop=1;jettySize=auto;html=1;exitX=0.5;exitY=1;exitDx=0;exitDy=0;strokeColor=default;strokeWidth=2;align=center;verticalAlign=middle;fontFamily=Helvetica;fontSize=14;fontColor=default;labelBackgroundColor=default;endArrow=classic;" edge="1" parent="1" source="Gngz97oQ8ZHujTCnx3hb-61" target="Gngz97oQ8ZHujTCnx3hb-70">
          <mxGeometry relative="1" as="geometry" />
        </mxCell>
        <mxCell id="Gngz97oQ8ZHujTCnx3hb-91" value="r1: _&amp;nbsp;&lt;br&gt;r2: _" style="edgeStyle=orthogonalEdgeStyle;shape=connector;rounded=0;orthogonalLoop=1;jettySize=auto;html=1;strokeColor=default;strokeWidth=2;align=center;verticalAlign=middle;fontFamily=Helvetica;fontSize=14;fontColor=default;labelBackgroundColor=default;endArrow=classic;exitX=1;exitY=0;exitDx=0;exitDy=0;" edge="1" parent="1" source="Gngz97oQ8ZHujTCnx3hb-61" target="Gngz97oQ8ZHujTCnx3hb-62">
          <mxGeometry relative="1" as="geometry" />
        </mxCell>
        <mxCell id="Gngz97oQ8ZHujTCnx3hb-61" value="&lt;font style=&quot;font-size: 15px;&quot;&gt;subtract&lt;/font&gt;" style="ellipse;whiteSpace=wrap;html=1;" vertex="1" parent="1">
          <mxGeometry x="830" y="240" width="80" height="80" as="geometry" />
        </mxCell>
        <mxCell id="Gngz97oQ8ZHujTCnx3hb-92" style="edgeStyle=orthogonalEdgeStyle;shape=connector;rounded=0;orthogonalLoop=1;jettySize=auto;html=1;exitX=0;exitY=1;exitDx=0;exitDy=0;strokeColor=default;strokeWidth=2;align=center;verticalAlign=middle;fontFamily=Helvetica;fontSize=14;fontColor=default;labelBackgroundColor=default;endArrow=classic;" edge="1" parent="1" source="Gngz97oQ8ZHujTCnx3hb-62" target="Gngz97oQ8ZHujTCnx3hb-66">
          <mxGeometry relative="1" as="geometry" />
        </mxCell>
        <mxCell id="Gngz97oQ8ZHujTCnx3hb-93" value="r1: 0, _&lt;br&gt;r2: 0, 1" style="edgeStyle=orthogonalEdgeStyle;shape=connector;rounded=0;orthogonalLoop=1;jettySize=auto;html=1;exitX=0;exitY=0.5;exitDx=0;exitDy=0;strokeColor=default;strokeWidth=2;align=center;verticalAlign=middle;fontFamily=Helvetica;fontSize=14;fontColor=default;labelBackgroundColor=default;endArrow=classic;" edge="1" parent="1" source="Gngz97oQ8ZHujTCnx3hb-62" target="Gngz97oQ8ZHujTCnx3hb-70">
          <mxGeometry relative="1" as="geometry" />
        </mxCell>
        <mxCell id="Gngz97oQ8ZHujTCnx3hb-62" value="&lt;font style=&quot;font-size: 15px;&quot;&gt;checkMSB&lt;/font&gt;" style="ellipse;whiteSpace=wrap;html=1;" vertex="1" parent="1">
          <mxGeometry x="1000" y="440" width="80" height="80" as="geometry" />
        </mxCell>
        <mxCell id="Gngz97oQ8ZHujTCnx3hb-94" value="r1: 1&amp;nbsp;" style="edgeStyle=orthogonalEdgeStyle;shape=connector;rounded=0;orthogonalLoop=1;jettySize=auto;html=1;exitX=1;exitY=0;exitDx=0;exitDy=0;entryX=0;entryY=1;entryDx=0;entryDy=0;strokeColor=default;strokeWidth=2;align=center;verticalAlign=middle;fontFamily=Helvetica;fontSize=14;fontColor=default;labelBackgroundColor=default;endArrow=classic;" edge="1" parent="1" source="Gngz97oQ8ZHujTCnx3hb-63" target="Gngz97oQ8ZHujTCnx3hb-61">
          <mxGeometry relative="1" as="geometry" />
        </mxCell>
        <mxCell id="Gngz97oQ8ZHujTCnx3hb-95" value="r1: _&amp;nbsp;&lt;br&gt;r2: _&amp;nbsp;" style="edgeStyle=orthogonalEdgeStyle;shape=connector;rounded=0;orthogonalLoop=1;jettySize=auto;html=1;exitX=0.5;exitY=1;exitDx=0;exitDy=0;strokeColor=default;strokeWidth=2;align=center;verticalAlign=middle;fontFamily=Helvetica;fontSize=14;fontColor=default;labelBackgroundColor=default;endArrow=classic;entryX=0;entryY=0;entryDx=0;entryDy=0;" edge="1" parent="1" source="Gngz97oQ8ZHujTCnx3hb-63" target="Gngz97oQ8ZHujTCnx3hb-70">
          <mxGeometry x="-0.2432" relative="1" as="geometry">
            <mxPoint as="offset" />
          </mxGeometry>
        </mxCell>
        <mxCell id="Gngz97oQ8ZHujTCnx3hb-96" value="r2: 1&amp;nbsp;" style="edgeStyle=orthogonalEdgeStyle;shape=connector;rounded=0;orthogonalLoop=1;jettySize=auto;html=1;exitX=0;exitY=1;exitDx=0;exitDy=0;entryX=1;entryY=0;entryDx=0;entryDy=0;strokeColor=default;strokeWidth=2;align=center;verticalAlign=middle;fontFamily=Helvetica;fontSize=14;fontColor=default;labelBackgroundColor=default;endArrow=classic;" edge="1" parent="1" source="Gngz97oQ8ZHujTCnx3hb-63" target="Gngz97oQ8ZHujTCnx3hb-65">
          <mxGeometry relative="1" as="geometry" />
        </mxCell>
        <mxCell id="Gngz97oQ8ZHujTCnx3hb-97" style="edgeStyle=orthogonalEdgeStyle;shape=connector;rounded=0;orthogonalLoop=1;jettySize=auto;html=1;exitX=0;exitY=0.5;exitDx=0;exitDy=0;strokeColor=default;strokeWidth=2;align=center;verticalAlign=middle;fontFamily=Helvetica;fontSize=14;fontColor=default;labelBackgroundColor=default;endArrow=classic;entryX=0.5;entryY=0;entryDx=0;entryDy=0;" edge="1" parent="1" source="Gngz97oQ8ZHujTCnx3hb-63" target="Gngz97oQ8ZHujTCnx3hb-63">
          <mxGeometry relative="1" as="geometry">
            <mxPoint x="520" y="300" as="targetPoint" />
            <Array as="points">
              <mxPoint x="470" y="400" />
              <mxPoint x="470" y="340" />
              <mxPoint x="530" y="340" />
            </Array>
          </mxGeometry>
        </mxCell>
        <mxCell id="Gngz97oQ8ZHujTCnx3hb-63" value="&lt;font style=&quot;font-size: 15px;&quot;&gt;borrow&lt;/font&gt;" style="ellipse;whiteSpace=wrap;html=1;" vertex="1" parent="1">
          <mxGeometry x="490" y="360" width="80" height="80" as="geometry" />
        </mxCell>
        <mxCell id="Gngz97oQ8ZHujTCnx3hb-99" value="r1: _&lt;br&gt;r2: _&amp;nbsp;" style="edgeStyle=orthogonalEdgeStyle;shape=connector;rounded=0;orthogonalLoop=1;jettySize=auto;html=1;exitX=0.5;exitY=1;exitDx=0;exitDy=0;strokeColor=default;strokeWidth=2;align=center;verticalAlign=middle;fontFamily=Helvetica;fontSize=14;fontColor=default;labelBackgroundColor=default;endArrow=classic;entryX=0;entryY=0.5;entryDx=0;entryDy=0;" edge="1" parent="1" source="Gngz97oQ8ZHujTCnx3hb-65" target="Gngz97oQ8ZHujTCnx3hb-70">
          <mxGeometry relative="1" as="geometry">
            <Array as="points">
              <mxPoint x="400" y="550" />
            </Array>
          </mxGeometry>
        </mxCell>
        <mxCell id="Gngz97oQ8ZHujTCnx3hb-65" value="&lt;font style=&quot;font-size: 15px;&quot;&gt;take&lt;/font&gt;" style="ellipse;whiteSpace=wrap;html=1;" vertex="1" parent="1">
          <mxGeometry x="359.99999999999994" y="240" width="80" height="80" as="geometry" />
        </mxCell>
        <mxCell id="Gngz97oQ8ZHujTCnx3hb-100" value="r1: /&amp;nbsp;" style="edgeStyle=orthogonalEdgeStyle;shape=connector;rounded=0;orthogonalLoop=1;jettySize=auto;html=1;exitX=0;exitY=0.5;exitDx=0;exitDy=0;strokeColor=default;strokeWidth=2;align=center;verticalAlign=middle;fontFamily=Helvetica;fontSize=14;fontColor=default;labelBackgroundColor=default;endArrow=classic;" edge="1" parent="1" source="Gngz97oQ8ZHujTCnx3hb-66" target="Gngz97oQ8ZHujTCnx3hb-67">
          <mxGeometry relative="1" as="geometry" />
        </mxCell>
        <mxCell id="Gngz97oQ8ZHujTCnx3hb-66" value="&lt;font style=&quot;font-size: 15px;&quot;&gt;subtract&lt;br&gt;Again&lt;/font&gt;" style="ellipse;whiteSpace=wrap;html=1;" vertex="1" parent="1">
          <mxGeometry x="1030" y="640" width="80" height="80" as="geometry" />
        </mxCell>
        <mxCell id="Gngz97oQ8ZHujTCnx3hb-102" value="r1: /&amp;nbsp;&lt;br&gt;r3: _, 0&amp;nbsp;" style="edgeStyle=orthogonalEdgeStyle;shape=connector;rounded=0;orthogonalLoop=1;jettySize=auto;html=1;exitX=1;exitY=0;exitDx=0;exitDy=0;entryX=1;entryY=1;entryDx=0;entryDy=0;strokeColor=default;strokeWidth=2;align=center;verticalAlign=middle;fontFamily=Helvetica;fontSize=14;fontColor=default;labelBackgroundColor=default;endArrow=classic;" edge="1" parent="1" source="Gngz97oQ8ZHujTCnx3hb-67" target="Gngz97oQ8ZHujTCnx3hb-61">
          <mxGeometry x="-0.4631" y="-2" relative="1" as="geometry">
            <Array as="points">
              <mxPoint x="898" y="672" />
            </Array>
            <mxPoint as="offset" />
          </mxGeometry>
        </mxCell>
        <mxCell id="Gngz97oQ8ZHujTCnx3hb-104" value="r3: 1&amp;nbsp;" style="edgeStyle=orthogonalEdgeStyle;shape=connector;rounded=0;orthogonalLoop=1;jettySize=auto;html=1;exitX=0;exitY=0.5;exitDx=0;exitDy=0;strokeColor=default;strokeWidth=2;align=center;verticalAlign=middle;fontFamily=Helvetica;fontSize=14;fontColor=default;labelBackgroundColor=default;endArrow=classic;" edge="1" parent="1" source="Gngz97oQ8ZHujTCnx3hb-67" target="Gngz97oQ8ZHujTCnx3hb-68">
          <mxGeometry relative="1" as="geometry" />
        </mxCell>
        <mxCell id="Gngz97oQ8ZHujTCnx3hb-67" value="&lt;font style=&quot;font-size: 15px;&quot;&gt;increase&lt;br&gt;Counter&lt;/font&gt;" style="ellipse;whiteSpace=wrap;html=1;" vertex="1" parent="1">
          <mxGeometry x="740" y="660" width="80" height="80" as="geometry" />
        </mxCell>
        <mxCell id="Gngz97oQ8ZHujTCnx3hb-105" value="r3: _, 0&amp;nbsp;" style="edgeStyle=orthogonalEdgeStyle;shape=connector;rounded=0;orthogonalLoop=1;jettySize=auto;html=1;exitX=1;exitY=1;exitDx=0;exitDy=0;strokeColor=default;strokeWidth=2;align=center;verticalAlign=middle;fontFamily=Helvetica;fontSize=14;fontColor=default;labelBackgroundColor=default;endArrow=classic;" edge="1" parent="1" source="Gngz97oQ8ZHujTCnx3hb-68" target="Gngz97oQ8ZHujTCnx3hb-69">
          <mxGeometry relative="1" as="geometry">
            <Array as="points">
              <mxPoint x="758" y="758" />
              <mxPoint x="758" y="780" />
            </Array>
          </mxGeometry>
        </mxCell>
        <mxCell id="Gngz97oQ8ZHujTCnx3hb-68" value="&lt;font style=&quot;font-size: 15px;&quot;&gt;increase&lt;/font&gt;&lt;div&gt;&lt;font style=&quot;font-size: 15px;&quot;&gt;MSB&lt;/font&gt;&lt;/div&gt;" style="ellipse;whiteSpace=wrap;html=1;" vertex="1" parent="1">
          <mxGeometry x="525" y="690" width="80" height="80" as="geometry" />
        </mxCell>
        <mxCell id="Gngz97oQ8ZHujTCnx3hb-110" value="r3: _&amp;nbsp;" style="edgeStyle=orthogonalEdgeStyle;shape=connector;rounded=0;orthogonalLoop=1;jettySize=auto;html=1;exitX=0.5;exitY=0;exitDx=0;exitDy=0;entryX=1;entryY=0.5;entryDx=0;entryDy=0;strokeColor=default;strokeWidth=2;align=center;verticalAlign=middle;fontFamily=Helvetica;fontSize=14;fontColor=default;labelBackgroundColor=default;endArrow=classic;" edge="1" parent="1" source="Gngz97oQ8ZHujTCnx3hb-69" target="Gngz97oQ8ZHujTCnx3hb-61">
          <mxGeometry x="-0.5434" relative="1" as="geometry">
            <mxPoint as="offset" />
          </mxGeometry>
        </mxCell>
        <mxCell id="Gngz97oQ8ZHujTCnx3hb-69" value="&lt;font style=&quot;font-size: 15px;&quot;&gt;toggleOnes&lt;br&gt;UntilLSB&lt;/font&gt;" style="ellipse;whiteSpace=wrap;html=1;" vertex="1" parent="1">
          <mxGeometry x="910" y="706.5" width="80" height="80" as="geometry" />
        </mxCell>
        <mxCell id="Gngz97oQ8ZHujTCnx3hb-111" value="r1: =&amp;nbsp;" style="edgeStyle=orthogonalEdgeStyle;shape=connector;rounded=0;orthogonalLoop=1;jettySize=auto;html=1;exitX=0;exitY=1;exitDx=0;exitDy=0;strokeColor=default;strokeWidth=2;align=center;verticalAlign=middle;fontFamily=Helvetica;fontSize=14;fontColor=default;labelBackgroundColor=default;endArrow=classic;" edge="1" parent="1" source="Gngz97oQ8ZHujTCnx3hb-70" target="Gngz97oQ8ZHujTCnx3hb-71">
          <mxGeometry relative="1" as="geometry" />
        </mxCell>
        <mxCell id="Gngz97oQ8ZHujTCnx3hb-70" value="&lt;font style=&quot;font-size: 15px;&quot;&gt;check&lt;br&gt;Result&lt;/font&gt;" style="ellipse;whiteSpace=wrap;html=1;" vertex="1" parent="1">
          <mxGeometry x="605" y="510" width="80" height="80" as="geometry" />
        </mxCell>
        <mxCell id="Gngz97oQ8ZHujTCnx3hb-114" value="r1: _&amp;nbsp;" style="edgeStyle=orthogonalEdgeStyle;shape=connector;rounded=0;orthogonalLoop=1;jettySize=auto;html=1;exitX=0.5;exitY=0;exitDx=0;exitDy=0;strokeColor=default;strokeWidth=2;align=center;verticalAlign=middle;fontFamily=Helvetica;fontSize=14;fontColor=default;labelBackgroundColor=default;endArrow=classic;" edge="1" parent="1" source="Gngz97oQ8ZHujTCnx3hb-71" target="Gngz97oQ8ZHujTCnx3hb-72">
          <mxGeometry relative="1" as="geometry" />
        </mxCell>
        <mxCell id="Gngz97oQ8ZHujTCnx3hb-71" value="&lt;font style=&quot;font-size: 15px;&quot;&gt;goLSB&lt;/font&gt;" style="ellipse;whiteSpace=wrap;html=1;" vertex="1" parent="1">
          <mxGeometry x="230" y="590" width="80" height="80" as="geometry" />
        </mxCell>
        <mxCell id="Gngz97oQ8ZHujTCnx3hb-115" value="r1: _&amp;nbsp;&lt;br&gt;r3: _&amp;nbsp;" style="edgeStyle=orthogonalEdgeStyle;shape=connector;rounded=0;orthogonalLoop=1;jettySize=auto;html=1;exitX=0.5;exitY=0;exitDx=0;exitDy=0;strokeColor=default;strokeWidth=2;align=center;verticalAlign=middle;fontFamily=Helvetica;fontSize=14;fontColor=default;labelBackgroundColor=default;endArrow=classic;" edge="1" parent="1" source="Gngz97oQ8ZHujTCnx3hb-72" target="Gngz97oQ8ZHujTCnx3hb-74">
          <mxGeometry relative="1" as="geometry" />
        </mxCell>
        <mxCell id="Gngz97oQ8ZHujTCnx3hb-72" value="&lt;font style=&quot;font-size: 15px;&quot;&gt;compare&lt;br&gt;Results&lt;/font&gt;" style="ellipse;whiteSpace=wrap;html=1;" vertex="1" parent="1">
          <mxGeometry x="80" y="510" width="80" height="80" as="geometry" />
        </mxCell>
        <mxCell id="Gngz97oQ8ZHujTCnx3hb-78" value="r1: 0" style="edgeStyle=orthogonalEdgeStyle;shape=connector;rounded=0;orthogonalLoop=1;jettySize=auto;html=1;exitX=0;exitY=0.5;exitDx=0;exitDy=0;strokeColor=default;strokeWidth=2;align=center;verticalAlign=middle;fontFamily=Helvetica;fontSize=14;fontColor=default;labelBackgroundColor=default;endArrow=classic;" edge="1" parent="1" source="Gngz97oQ8ZHujTCnx3hb-58" target="Gngz97oQ8ZHujTCnx3hb-58">
          <mxGeometry relative="1" as="geometry" />
        </mxCell>
        <mxCell id="Gngz97oQ8ZHujTCnx3hb-81" value="r1: 0, 1" style="shape=connector;rounded=0;orthogonalLoop=1;jettySize=auto;html=1;strokeColor=default;strokeWidth=2;align=center;verticalAlign=middle;fontFamily=Helvetica;fontSize=14;fontColor=default;labelBackgroundColor=default;endArrow=classic;exitX=0;exitY=0;exitDx=0;exitDy=0;entryX=1;entryY=0.5;entryDx=0;entryDy=0;edgeStyle=orthogonalEdgeStyle;" edge="1" parent="1" source="Gngz97oQ8ZHujTCnx3hb-57" target="Gngz97oQ8ZHujTCnx3hb-57">
          <mxGeometry relative="1" as="geometry" />
        </mxCell>
        <mxCell id="Gngz97oQ8ZHujTCnx3hb-85" value="r1: 0, 1" style="edgeStyle=orthogonalEdgeStyle;shape=connector;rounded=0;orthogonalLoop=1;jettySize=auto;html=1;exitX=0;exitY=0.5;exitDx=0;exitDy=0;entryX=1;entryY=0.5;entryDx=0;entryDy=0;strokeColor=default;strokeWidth=2;align=center;verticalAlign=middle;fontFamily=Helvetica;fontSize=14;fontColor=default;labelBackgroundColor=default;endArrow=classic;" edge="1" parent="1" source="Gngz97oQ8ZHujTCnx3hb-59" target="Gngz97oQ8ZHujTCnx3hb-59">
          <mxGeometry relative="1" as="geometry">
            <Array as="points">
              <mxPoint x="590" y="103" />
              <mxPoint x="590" y="30" />
              <mxPoint x="710" y="30" />
              <mxPoint x="710" y="103" />
            </Array>
          </mxGeometry>
        </mxCell>
        <mxCell id="Gngz97oQ8ZHujTCnx3hb-87" style="edgeStyle=orthogonalEdgeStyle;shape=connector;rounded=0;orthogonalLoop=1;jettySize=auto;html=1;exitX=0.5;exitY=0;exitDx=0;exitDy=0;entryX=1;entryY=0.5;entryDx=0;entryDy=0;strokeColor=default;strokeWidth=2;align=center;verticalAlign=middle;fontFamily=Helvetica;fontSize=14;fontColor=default;labelBackgroundColor=default;endArrow=classic;" edge="1" parent="1" source="Gngz97oQ8ZHujTCnx3hb-60" target="Gngz97oQ8ZHujTCnx3hb-60">
          <mxGeometry relative="1" as="geometry" />
        </mxCell>
        <mxCell id="Gngz97oQ8ZHujTCnx3hb-98" value="r1: 1&amp;nbsp;" style="edgeStyle=orthogonalEdgeStyle;shape=connector;rounded=0;orthogonalLoop=1;jettySize=auto;html=1;exitX=1;exitY=0;exitDx=0;exitDy=0;entryX=0.224;entryY=0.141;entryDx=0;entryDy=0;entryPerimeter=0;strokeColor=default;strokeWidth=2;align=center;verticalAlign=middle;fontFamily=Helvetica;fontSize=14;fontColor=default;labelBackgroundColor=default;endArrow=classic;" edge="1" parent="1" source="Gngz97oQ8ZHujTCnx3hb-65" target="Gngz97oQ8ZHujTCnx3hb-61">
          <mxGeometry relative="1" as="geometry">
            <Array as="points">
              <mxPoint x="428" y="230" />
              <mxPoint x="635" y="230" />
              <mxPoint x="635" y="251" />
            </Array>
          </mxGeometry>
        </mxCell>
        <mxCell id="Gngz97oQ8ZHujTCnx3hb-101" style="edgeStyle=orthogonalEdgeStyle;shape=connector;rounded=0;orthogonalLoop=1;jettySize=auto;html=1;exitX=1;exitY=0;exitDx=0;exitDy=0;entryX=1;entryY=1;entryDx=0;entryDy=0;strokeColor=default;strokeWidth=2;align=center;verticalAlign=middle;fontFamily=Helvetica;fontSize=14;fontColor=default;labelBackgroundColor=default;endArrow=classic;" edge="1" parent="1" source="Gngz97oQ8ZHujTCnx3hb-66" target="Gngz97oQ8ZHujTCnx3hb-66">
          <mxGeometry relative="1" as="geometry" />
        </mxCell>
        <mxCell id="Gngz97oQ8ZHujTCnx3hb-103" value="" style="group" vertex="1" connectable="0" parent="1">
          <mxGeometry x="50" y="330" width="85" height="85" as="geometry" />
        </mxCell>
        <mxCell id="Gngz97oQ8ZHujTCnx3hb-73" value="&lt;font style=&quot;font-size: 15px;&quot;&gt;accept&lt;/font&gt;" style="ellipse;whiteSpace=wrap;html=1;" vertex="1" parent="Gngz97oQ8ZHujTCnx3hb-103">
          <mxGeometry x="2.5" y="2.5" width="80" height="80" as="geometry" />
        </mxCell>
        <mxCell id="Gngz97oQ8ZHujTCnx3hb-74" value="" style="ellipse;whiteSpace=wrap;html=1;fillColor=none;" vertex="1" parent="Gngz97oQ8ZHujTCnx3hb-103">
          <mxGeometry width="85" height="85" as="geometry" />
        </mxCell>
        <mxCell id="Gngz97oQ8ZHujTCnx3hb-107" value="r3: 1&amp;nbsp;" style="shape=connector;rounded=0;orthogonalLoop=1;jettySize=auto;html=1;exitX=1;exitY=0;exitDx=0;exitDy=0;entryX=0;entryY=0;entryDx=0;entryDy=0;strokeColor=default;strokeWidth=2;align=center;verticalAlign=middle;fontFamily=Helvetica;fontSize=14;fontColor=default;labelBackgroundColor=default;endArrow=classic;edgeStyle=elbowEdgeStyle;elbow=vertical;" edge="1" parent="1" source="Gngz97oQ8ZHujTCnx3hb-68" target="Gngz97oQ8ZHujTCnx3hb-68">
          <mxGeometry relative="1" as="geometry">
            <Array as="points">
              <mxPoint x="565" y="670" />
            </Array>
          </mxGeometry>
        </mxCell>
        <mxCell id="Gngz97oQ8ZHujTCnx3hb-109" value="r3: 0, 1" style="edgeStyle=orthogonalEdgeStyle;shape=connector;rounded=0;orthogonalLoop=1;jettySize=auto;html=1;exitX=1;exitY=0.5;exitDx=0;exitDy=0;entryX=0.5;entryY=1;entryDx=0;entryDy=0;strokeColor=default;strokeWidth=2;align=center;verticalAlign=middle;fontFamily=Helvetica;fontSize=14;fontColor=default;labelBackgroundColor=default;endArrow=classic;" edge="1" parent="1" source="Gngz97oQ8ZHujTCnx3hb-69" target="Gngz97oQ8ZHujTCnx3hb-69">
          <mxGeometry relative="1" as="geometry" />
        </mxCell>
        <mxCell id="Gngz97oQ8ZHujTCnx3hb-112" style="edgeStyle=orthogonalEdgeStyle;shape=connector;rounded=0;orthogonalLoop=1;jettySize=auto;html=1;exitX=0.5;exitY=1;exitDx=0;exitDy=0;entryX=1;entryY=1;entryDx=0;entryDy=0;strokeColor=default;strokeWidth=2;align=center;verticalAlign=middle;fontFamily=Helvetica;fontSize=14;fontColor=default;labelBackgroundColor=default;endArrow=classic;" edge="1" parent="1" source="Gngz97oQ8ZHujTCnx3hb-70" target="Gngz97oQ8ZHujTCnx3hb-70">
          <mxGeometry relative="1" as="geometry">
            <Array as="points">
              <mxPoint x="645" y="620" />
              <mxPoint x="673" y="620" />
            </Array>
          </mxGeometry>
        </mxCell>
        <mxCell id="Gngz97oQ8ZHujTCnx3hb-113" style="edgeStyle=orthogonalEdgeStyle;shape=connector;rounded=0;orthogonalLoop=1;jettySize=auto;html=1;exitX=0;exitY=1;exitDx=0;exitDy=0;entryX=1;entryY=1;entryDx=0;entryDy=0;strokeColor=default;strokeWidth=2;align=center;verticalAlign=middle;fontFamily=Helvetica;fontSize=14;fontColor=default;labelBackgroundColor=default;endArrow=classic;" edge="1" parent="1" source="Gngz97oQ8ZHujTCnx3hb-71" target="Gngz97oQ8ZHujTCnx3hb-71">
          <mxGeometry relative="1" as="geometry">
            <Array as="points">
              <mxPoint x="242" y="730" />
              <mxPoint x="298" y="730" />
            </Array>
          </mxGeometry>
        </mxCell>
        <mxCell id="Gngz97oQ8ZHujTCnx3hb-116" style="edgeStyle=orthogonalEdgeStyle;shape=connector;rounded=0;orthogonalLoop=1;jettySize=auto;html=1;exitX=1;exitY=1;exitDx=0;exitDy=0;entryX=0;entryY=1;entryDx=0;entryDy=0;strokeColor=default;strokeWidth=2;align=center;verticalAlign=middle;fontFamily=Helvetica;fontSize=14;fontColor=default;labelBackgroundColor=default;endArrow=classic;" edge="1" parent="1" source="Gngz97oQ8ZHujTCnx3hb-72" target="Gngz97oQ8ZHujTCnx3hb-72">
          <mxGeometry relative="1" as="geometry">
            <Array as="points">
              <mxPoint x="148" y="660" />
              <mxPoint x="92" y="660" />
            </Array>
          </mxGeometry>
        </mxCell>
      </root>
    </mxGraphModel>
  </diagram>
</mxfile>
